<svg width="231" height="174" viewBox="0 0 231 174" fill="none" xmlns="http://www.w3.org/2000/svg">
<path fill-rule="evenodd" clip-rule="evenodd" d="M14.5355 1.28859C10.9325 2.87659 1.58747 12.5726 0.570474 15.7776C-1.32453 21.7486 -0.0335293 23.4116 29.0285 52.4346L57.0045 80.3726L29.1295 108.381C13.7975 123.785 0.936474 137.44 0.549474 138.725C-0.725526 142.959 0.959473 147.588 5.69747 152.857C12.7865 160.741 18.6045 162.75 24.8355 159.464C26.3205 158.68 43.5655 141.918 63.1575 122.214C100.477 84.6786 100.812 84.2606 98.9365 77.5136C97.8735 73.6886 27.0745 2.55259 22.7205 0.93459C19.1735 -0.38441 18.2375 -0.34341 14.5355 1.28859ZM75.0495 140.912C73.1325 141.363 70.3205 143.124 68.7995 144.826C66.2665 147.661 66.0355 148.592 66.0355 155.953C66.0355 165.523 67.6785 169.423 72.5695 171.467C77.6315 173.582 219.439 173.582 224.501 171.467C229.702 169.293 231.297 165.246 230.882 155.273C230.574 147.875 230.242 146.64 227.942 144.341C226.517 142.915 223.592 141.341 221.442 140.842C216.594 139.717 79.8535 139.783 75.0495 140.912Z" fill="#FFFFFF"/>
</svg>
